<?xml version="1.0" encoding="iso-8859-1"?>
<!-- Uploaded to: SVG Repo, www.svgrepo.com, Generator: SVG Repo Mixer Tools -->
<svg height="800px" width="800px" version="1.1" id="Capa_1" xmlns="http://www.w3.org/2000/svg" xmlns:xlink="http://www.w3.org/1999/xlink" 
	 viewBox="0 0 26 26" xml:space="preserve">
<g>
	<g>
		<path style="fill:#030104;" d="M21.677,9.896c-0.208,0-0.415,0.042-0.582,0.295c-0.416,0.547-1.578,3.749-1.537,4.38
			c0,0.212,0.125,0.421,0.416,0.421s0.498-0.209,0.664-0.506c0.334-0.588,1.372-3.453,1.412-4.169
			C22.05,10.148,22.01,9.896,21.677,9.896z"/>
		<path style="fill:#030104;" d="M20.904,0H5.096C2.293,0,0,2.293,0,5.094v15.813C0,23.707,2.293,26,5.096,26h15.809
			C23.707,26,26,23.707,26,20.906V5.094C26,2.293,23.707,0,20.904,0z M3.399,16.972c-0.789,0-1.495-0.379-1.495-1.305
			c-0.041-1.644,1.577-5.435,2.368-6.656c0.373-0.59,0.789-0.885,1.494-0.885c0.666,0,0.832,0.338,0.789,0.717
			c0,1.095-1.743,4.423-2.325,5.728c1.37-0.211,1.703,0.253,1.66,0.759C5.767,16.72,4.52,17.014,3.399,16.972z M8.675,13.308
			c-0.082,0.253-0.249,0.759-0.374,1.307c0.458-0.085,0.789-0.169,1.37-0.169c0.625,0,1.081,0.294,1.081,0.842
			c0,1.349-1.496,1.727-2.492,1.727c-1.122,0-2.077-0.631-2.077-1.853c0-1.475,0.747-3.665,1.495-5.098C8.55,8.253,9.465,8,11.042,8
			c0.666,0,1.496,0.338,1.496,0.97c0,0.927-0.79,1.264-1.536,1.306c-0.333,0.042-0.832,0.042-1.123,0.042
			c0,0-0.248,0.379-0.497,1.053c1.37-0.168,1.993,0.127,1.743,0.97C10.793,13.434,9.838,13.518,8.675,13.308z M17.148,13.434
			c-0.416,1.979-1.785,3.58-3.779,3.58c-1.371,0-2.201-0.758-2.201-2.148c0-1.01,0.498-2.568,0.871-3.496
			c0.832-1.937,1.704-3.326,3.903-3.326c1.332,0,2.37,0.505,2.203,1.77c-0.124,0.925-0.581,1.431-1.37,1.515
			c-0.25,0-1.204,0-0.872-0.926c0.083-0.295,0.166-0.549-0.332-0.549c-0.375,0-0.623,0.254-0.79,0.507
			c-0.416,0.59-1.288,2.906-1.412,3.832c-0.125,0.674,0.165,0.8,0.457,0.8c0.498,0,1.038-0.546,1.246-1.39
			c0,0-0.955-0.041-0.707-0.842c0.25-0.842,0.748-1.011,1.538-1.053C17.439,11.665,17.274,12.802,17.148,13.434z M23.919,11.496
			c-0.249,1.18-0.789,2.57-1.327,3.58c-0.957,1.727-2.078,1.938-3.034,1.938c-0.997,0-2.118-0.378-2.118-1.938
			c0-1.095,0.457-2.652,0.873-3.664c0.705-1.854,1.411-3.369,3.653-3.327C24.584,8.085,24.127,10.484,23.919,11.496z"/>
	</g>
</g>
</svg>